<svg id="Capa_1" enable-background="new 0 0 512 512" height="512" viewBox="0 0 512 512" width="512" xmlns="http://www.w3.org/2000/svg"><g><path d="m497 151h-482c-8.284 0-15-6.716-15-15v-30c0-24.813 20.187-45 45-45h422c24.813 0 45 20.187 45 45v30c0 8.284-6.716 15-15 15z" fill="#823200"/><path d="m467 61h-211v90h241c8.284 0 15-6.716 15-15v-30c0-24.813-20.187-45-45-45z" fill="#4b1e0a"/><path d="m497 451h-482c-8.284 0-15-6.716-15-15v-81.016c0-8.208 6.597-14.892 14.805-14.999 7.741-.101 13.305-4.276 21.741-11.079 9.339-7.532 20.962-16.906 38.341-16.906 16.295 0 27.34 9.013 36.215 16.255 8.924 7.282 14.865 11.745 24.156 11.745 7.91 0 13.258-4.005 22.03-11.085 9.338-7.537 20.959-16.915 38.341-16.915 16.295 0 27.34 9.013 36.215 16.255 8.924 7.282 14.865 11.745 24.156 11.745 7.91 0 13.258-4.005 22.03-11.085 9.338-7.537 20.959-16.915 38.341-16.915 16.295 0 27.34 9.013 36.215 16.255 8.924 7.282 14.865 11.745 24.156 11.745 7.911 0 13.258-4.005 22.03-11.085 9.338-7.536 20.959-16.915 38.341-16.915 16.292 0 27.339 9.008 36.215 16.246 8.844 7.212 14.728 11.638 23.84 11.74 8.218.093 14.831 6.781 14.831 14.999v81.015c.001 8.284-6.715 15-14.999 15z" fill="#af6432"/><path d="m497.169 339.986c-9.113-.103-14.996-4.528-23.84-11.74-8.877-7.238-19.924-16.246-36.216-16.246-17.382 0-29.003 9.379-38.341 16.915-8.772 7.08-14.119 11.085-22.03 11.085-9.291 0-15.232-4.463-24.156-11.745-8.875-7.242-19.92-16.255-36.215-16.255-17.382 0-29.003 9.379-38.341 16.915-8.772 7.08-14.12 11.085-22.03 11.085v111h241c8.284 0 15-6.716 15-15v-81.015c0-8.218-6.613-14.906-14.831-14.999z" fill="#823200"/><path d="m126.675 355c28.56 0 38.258-28 64.663-28 24.788 0 33.948 28 64.663 28 28.56 0 38.259-28 64.663-28 24.788 0 33.948 28 64.663 28 28.56 0 38.259-28 64.663-28 24.059 0 33.398 26.374 62.012 27.924v-69.939c0-8.218-6.613-14.906-14.831-14.999-9.113-.103-14.996-4.528-23.84-11.74-8.879-7.238-19.926-16.246-36.218-16.246-17.382 0-29.003 9.379-38.341 16.915-8.772 7.08-14.119 11.085-22.03 11.085-9.291 0-15.232-4.463-24.156-11.745-8.875-7.242-19.92-16.255-36.215-16.255-17.382 0-29.003 9.379-38.341 16.915-8.772 7.08-14.12 11.085-22.03 11.085-9.291 0-15.232-4.463-24.156-11.745-8.875-7.242-19.92-16.255-36.215-16.255-17.382 0-29.003 9.379-38.341 16.915-8.772 7.079-14.12 11.085-22.03 11.085-9.291 0-15.232-4.463-24.156-11.745-8.875-7.242-19.92-16.255-36.215-16.255-17.379 0-29.002 9.374-38.341 16.906-8.436 6.804-13.999 10.978-21.741 11.079-8.208.107-14.805 6.791-14.805 14.999v69.933c26.538-1.659 36.442-27.917 62.012-27.917 24.788 0 33.948 28 64.663 28z" fill="#823200"/><path d="m497.169 269.986c-9.113-.103-14.996-4.528-23.84-11.74-8.877-7.238-19.924-16.246-36.216-16.246-17.382 0-29.003 9.379-38.341 16.915-8.772 7.08-14.119 11.085-22.03 11.085-9.291 0-15.232-4.463-24.156-11.745-8.875-7.242-19.92-16.255-36.215-16.255-17.382 0-29.003 9.379-38.341 16.915-8.772 7.08-14.12 11.085-22.03 11.085v85c28.56 0 38.259-28 64.663-28 24.788 0 33.948 28 64.663 28 28.56 0 38.259-28 64.663-28 24.059 0 33.398 26.374 62.012 27.924v-69.939c-.001-8.218-6.614-14.906-14.832-14.999z" fill="#4b1e0a"/><path d="m126.675 285c28.56 0 38.258-28 64.663-28 24.788 0 33.948 28 64.663 28 28.56 0 38.259-28 64.663-28 24.788 0 33.948 28 64.663 28 28.56 0 38.259-28 64.663-28 24.059 0 33.398 26.374 62.012 27.924v-148.924h-512.002v148.917c26.538-1.659 36.442-27.917 62.012-27.917 24.788 0 33.948 28 64.663 28z" fill="#af6432"/><g fill="#823200"><path d="m256 136v149c28.56 0 38.259-28 64.663-28 24.788 0 33.948 28 64.663 28 28.56 0 38.259-28 64.663-28 24.059 0 33.398 26.374 62.012 27.924v-148.924z"/><path d="m136 211h-30c-8.284 0-15-6.716-15-15s6.716-15 15-15h30c8.284 0 15 6.716 15 15s-6.716 15-15 15z"/><path d="m226 211h-30c-8.284 0-15-6.716-15-15s6.716-15 15-15h30c8.284 0 15 6.716 15 15s-6.716 15-15 15z"/></g><path d="m316 211h-30c-8.284 0-15-6.716-15-15s6.716-15 15-15h30c8.284 0 15 6.716 15 15s-6.716 15-15 15z" fill="#4b1e0a"/><path d="m406 211h-30c-8.284 0-15-6.716-15-15s6.716-15 15-15h30c8.284 0 15 6.716 15 15s-6.716 15-15 15z" fill="#4b1e0a"/><path d="m466 181c-8.284 0-15 6.716-15 15s6.716 15 15 15h46v-30z" fill="#4b1e0a"/><path d="m46 181h-46v30h46c8.284 0 15-6.716 15-15s-6.716-15-15-15z" fill="#823200"/></g></svg>