<svg id="icon" height="512" viewBox="0 0 128 128" width="512" xmlns="http://www.w3.org/2000/svg"><path d="m114.342 38.929a8.811 8.811 0 0 0 -2.125-5.8 7.647 7.647 0 1 0 -11.85-9.586 7.649 7.649 0 0 0 -12.649 0 7.649 7.649 0 0 0 -12.649 0 7.649 7.649 0 0 0 -12.649 0 7.649 7.649 0 0 0 -12.649 0 7.648 7.648 0 1 0 -11.851 9.587 8.811 8.811 0 0 0 -2.125 5.8 8.64 8.64 0 0 0 3.347 6.943 8.876 8.876 0 0 0 0 13.887 8.876 8.876 0 0 0 0 13.887 8.875 8.875 0 0 0 0 13.887 8.876 8.876 0 0 0 0 13.887 8.64 8.64 0 0 0 -3.347 6.943 8.816 8.816 0 0 0 2.084 5.749 7.647 7.647 0 1 0 11.892 9.541 7.649 7.649 0 0 0 12.649 0 7.649 7.649 0 0 0 12.649 0 7.649 7.649 0 0 0 12.649 0 7.649 7.649 0 0 0 12.649 0 7.647 7.647 0 1 0 11.892-9.541 8.816 8.816 0 0 0 2.084-5.749 8.64 8.64 0 0 0 -3.347-6.943 8.876 8.876 0 0 0 0-13.887 8.875 8.875 0 0 0 0-13.887 8.876 8.876 0 0 0 0-13.887 8.876 8.876 0 0 0 0-13.887 8.64 8.64 0 0 0 3.346-6.944z" fill="#e1b378"/><g opacity=".5"><path d="m110.994 45.872a8.879 8.879 0 0 1 0 13.886 8.88 8.88 0 0 1 0 13.886 8.879 8.879 0 0 1 0 13.886 8.879 8.879 0 0 1 0 13.886 8.652 8.652 0 0 1 3.344 6.943 8.816 8.816 0 0 1 -2.08 5.75 7.645 7.645 0 0 1 -5.566 12.891 7.251 7.251 0 0 1 -1.162-.092 7.621 7.621 0 0 0 .969-11.347 8.81 8.81 0 0 0 2.09-5.75 8.646 8.646 0 0 0 -3.354-6.943 8.863 8.863 0 0 0 0-13.886 8.873 8.873 0 0 0 0-13.9 8.863 8.863 0 0 0 0-13.886 8.863 8.863 0 0 0 0-13.886 8.646 8.646 0 0 0 3.354-6.943 8.81 8.81 0 0 0 -2.131-5.8 7.624 7.624 0 0 0 -4.358-12.827 7.554 7.554 0 0 1 4.588-1.539 7.643 7.643 0 0 1 5.526 12.928 8.8 8.8 0 0 1 2.121 5.8 8.638 8.638 0 0 1 -3.341 6.943z" fill="#bd8d5a"/></g><path d="m98.882 21.923a7.537 7.537 0 0 1 2.049-.285 6.349 6.349 0 0 1 1.172.1 7.471 7.471 0 0 0 -1.733 1.8 7.492 7.492 0 0 0 -1.488-1.615z" fill="#bd8d5a"/><path d="m106.691 128a8.645 8.645 0 0 1 -6.324-2.75 8.647 8.647 0 0 1 -12.649 0 8.646 8.646 0 0 1 -12.649 0 8.646 8.646 0 0 1 -12.649 0 8.647 8.647 0 0 1 -12.649 0 8.646 8.646 0 0 1 -13.181-11.165 9.886 9.886 0 0 1 -1.794-5.721 9.787 9.787 0 0 1 2.821-6.943 9.956 9.956 0 0 1 0-13.887 9.957 9.957 0 0 1 0-13.887 9.957 9.957 0 0 1 0-13.887 9.956 9.956 0 0 1 0-13.887 9.984 9.984 0 0 1 -.992-12.714 8.647 8.647 0 0 1 13.145-11.212 8.647 8.647 0 0 1 12.649 0 8.646 8.646 0 0 1 12.649 0 8.646 8.646 0 0 1 12.649 0 8.647 8.647 0 0 1 12.649 0 8.647 8.647 0 0 1 13.146 11.211 9.984 9.984 0 0 1 -.992 12.714 9.956 9.956 0 0 1 0 13.887 9.956 9.956 0 0 1 0 13.887 9.956 9.956 0 0 1 0 13.887 9.956 9.956 0 0 1 0 13.887 9.787 9.787 0 0 1 2.821 6.943 9.886 9.886 0 0 1 -1.794 5.721 8.643 8.643 0 0 1 -6.856 13.916zm-6.324-5.347a1 1 0 0 1 .826.437 6.647 6.647 0 1 0 10.337-8.29 1 1 0 0 1 -.031-1.336 7.817 7.817 0 0 0 1.843-5.1 7.651 7.651 0 0 0 -2.946-6.143 1 1 0 0 1 0-1.6 7.877 7.877 0 0 0 0-12.286 1 1 0 0 1 0-1.6 7.878 7.878 0 0 0 0-12.287 1 1 0 0 1 0-1.6 7.877 7.877 0 0 0 0-12.286 1 1 0 0 1 0-1.6 7.876 7.876 0 0 0 0-12.285 1 1 0 0 1 0-1.6 7.651 7.651 0 0 0 2.946-6.143 7.812 7.812 0 0 0 -1.879-5.143 1 1 0 0 1 .031-1.348 6.648 6.648 0 1 0 -10.3-8.332 1.038 1.038 0 0 1 -1.652 0 6.649 6.649 0 0 0 -11 0 1 1 0 0 1 -.826.437 1 1 0 0 1 -.826-.437 6.649 6.649 0 0 0 -11 0 1.038 1.038 0 0 1 -1.652 0 6.649 6.649 0 0 0 -11 0 1.038 1.038 0 0 1 -1.652 0 6.649 6.649 0 0 0 -11 0 1.038 1.038 0 0 1 -1.652 0 6.648 6.648 0 1 0 -10.3 8.332 1 1 0 0 1 .031 1.348 7.812 7.812 0 0 0 -1.879 5.143 7.651 7.651 0 0 0 2.946 6.143 1 1 0 0 1 0 1.6 7.876 7.876 0 0 0 0 12.285 1 1 0 0 1 0 1.6 7.877 7.877 0 0 0 0 12.286 1 1 0 0 1 0 1.6 7.878 7.878 0 0 0 0 12.287 1 1 0 0 1 0 1.6 7.877 7.877 0 0 0 0 12.286 1 1 0 0 1 0 1.6 7.651 7.651 0 0 0 -2.946 6.143 7.817 7.817 0 0 0 1.843 5.1 1 1 0 0 1 -.031 1.336 6.647 6.647 0 1 0 10.337 8.292 1.038 1.038 0 0 1 1.652 0 6.649 6.649 0 0 0 11 0 1 1 0 0 1 .826-.437 1 1 0 0 1 .826.437 6.649 6.649 0 0 0 11 0 1 1 0 0 1 .826-.437 1 1 0 0 1 .826.437 6.649 6.649 0 0 0 11 0 1.038 1.038 0 0 1 1.652 0 6.649 6.649 0 0 0 11 0 1 1 0 0 1 .824-.439z" fill="#2f3a5a"/><g fill="#bd8d5a"><circle cx="100.83" cy="33.17" r="1.626"/><circle cx="83.655" cy="33.17" r="1.626"/><circle cx="66.481" cy="33.17" r="1.626"/><circle cx="49.307" cy="33.17" r="1.626"/><circle cx="100.83" cy="49.341" r="1.626"/><circle cx="83.655" cy="49.341" r="1.626"/><circle cx="66.481" cy="49.341" r="1.626"/><circle cx="49.307" cy="49.341" r="1.626"/><circle cx="100.83" cy="65.513" r="1.626"/><circle cx="83.655" cy="65.513" r="1.626"/><circle cx="66.481" cy="65.513" r="1.626"/><circle cx="49.307" cy="65.513" r="1.626"/><circle cx="100.83" cy="81.684" r="1.626"/><circle cx="83.655" cy="81.684" r="1.626"/><circle cx="66.481" cy="81.684" r="1.626"/><circle cx="49.307" cy="81.684" r="1.626"/><circle cx="100.83" cy="97.855" r="1.626"/><circle cx="83.655" cy="97.855" r="1.626"/><circle cx="66.481" cy="97.855" r="1.626"/><circle cx="49.307" cy="97.855" r="1.626"/><circle cx="100.83" cy="114.027" r="1.626"/><circle cx="83.655" cy="114.027" r="1.626"/><circle cx="66.481" cy="114.027" r="1.626"/><circle cx="49.307" cy="114.027" r="1.626"/></g><path d="m92.205 19.733a8.811 8.811 0 0 0 -2.125-5.8 7.647 7.647 0 1 0 -11.85-9.586 7.649 7.649 0 0 0 -12.649 0 7.649 7.649 0 0 0 -12.649 0 7.649 7.649 0 0 0 -12.649 0 7.649 7.649 0 0 0 -12.649 0 7.648 7.648 0 1 0 -11.85 9.586 8.811 8.811 0 0 0 -2.125 5.8 8.64 8.64 0 0 0 3.347 6.943 8.876 8.876 0 0 0 0 13.887 8.876 8.876 0 0 0 0 13.887 8.875 8.875 0 0 0 0 13.887 8.876 8.876 0 0 0 0 13.887 8.64 8.64 0 0 0 -3.347 6.943 8.816 8.816 0 0 0 2.084 5.749 7.647 7.647 0 1 0 11.892 9.541 7.649 7.649 0 0 0 12.649 0 7.649 7.649 0 0 0 12.649 0 7.649 7.649 0 0 0 12.649 0 7.649 7.649 0 0 0 12.649 0 7.647 7.647 0 1 0 11.892-9.541 8.816 8.816 0 0 0 2.084-5.749 8.64 8.64 0 0 0 -3.347-6.943 8.876 8.876 0 0 0 0-13.887 8.875 8.875 0 0 0 0-13.887 8.876 8.876 0 0 0 0-13.887 8.876 8.876 0 0 0 0-13.887 8.64 8.64 0 0 0 3.345-6.943z" fill="#e1b378"/><g opacity=".5"><path d="m88.857 26.675a8.879 8.879 0 0 1 0 13.886 8.88 8.88 0 0 1 0 13.886 8.879 8.879 0 0 1 0 13.886 8.879 8.879 0 0 1 0 13.886 8.652 8.652 0 0 1 3.343 6.943 8.816 8.816 0 0 1 -2.08 5.75 7.645 7.645 0 0 1 -5.565 12.888 7.251 7.251 0 0 1 -1.162-.092 7.621 7.621 0 0 0 .969-11.347 8.81 8.81 0 0 0 2.09-5.75 8.646 8.646 0 0 0 -3.352-6.944 8.863 8.863 0 0 0 0-13.886 8.873 8.873 0 0 0 0-13.9 8.863 8.863 0 0 0 0-13.881 8.863 8.863 0 0 0 0-13.886 8.646 8.646 0 0 0 3.354-6.943 8.81 8.81 0 0 0 -2.131-5.8 7.624 7.624 0 0 0 -4.356-12.828 7.554 7.554 0 0 1 4.588-1.543 7.643 7.643 0 0 1 5.526 12.928 8.8 8.8 0 0 1 2.121 5.8 8.638 8.638 0 0 1 -3.345 6.947z" fill="#bd8d5a"/></g><path d="m76.745 2.727a7.537 7.537 0 0 1 2.049-.285 6.349 6.349 0 0 1 1.172.1 7.471 7.471 0 0 0 -1.733 1.8 7.492 7.492 0 0 0 -1.488-1.615z" fill="#bd8d5a"/><path d="m84.555 108.8a8.647 8.647 0 0 1 -6.325-2.75 8.646 8.646 0 0 1 -12.649 0 8.647 8.647 0 0 1 -12.649 0 8.646 8.646 0 0 1 -12.649 0 8.647 8.647 0 0 1 -12.649 0 8.646 8.646 0 0 1 -13.181-11.162 9.888 9.888 0 0 1 -1.794-5.722 9.789 9.789 0 0 1 2.821-6.943 9.956 9.956 0 0 1 0-13.887 9.956 9.956 0 0 1 0-13.887 9.956 9.956 0 0 1 0-13.887 9.956 9.956 0 0 1 0-13.887 9.985 9.985 0 0 1 -.992-12.715 8.647 8.647 0 0 1 13.145-11.21 8.647 8.647 0 0 1 12.649 0 8.646 8.646 0 0 1 12.649 0 8.647 8.647 0 0 1 12.649 0 8.646 8.646 0 0 1 12.649 0 8.647 8.647 0 0 1 13.147 11.211 9.985 9.985 0 0 1 -.992 12.715 9.956 9.956 0 0 1 0 13.887 9.957 9.957 0 0 1 0 13.887 9.957 9.957 0 0 1 0 13.887 9.956 9.956 0 0 1 0 13.887 9.789 9.789 0 0 1 2.821 6.943 9.888 9.888 0 0 1 -1.794 5.722 8.643 8.643 0 0 1 -6.856 13.911zm-6.325-5.347a1 1 0 0 1 .826.437 6.647 6.647 0 1 0 10.338-8.29 1 1 0 0 1 -.031-1.336 7.82 7.82 0 0 0 1.843-5.1 7.654 7.654 0 0 0 -2.946-6.143 1 1 0 0 1 0-1.6 7.876 7.876 0 0 0 0-12.285 1 1 0 0 1 0-1.6 7.877 7.877 0 0 0 0-12.286 1 1 0 0 1 0-1.6 7.877 7.877 0 0 0 0-12.285 1 1 0 0 1 0-1.6 7.877 7.877 0 0 0 0-12.286 1 1 0 0 1 0-1.6 7.653 7.653 0 0 0 2.946-6.143 7.81 7.81 0 0 0 -1.879-5.143 1 1 0 0 1 .031-1.348 6.648 6.648 0 1 0 -10.3-8.332 1.038 1.038 0 0 1 -1.652 0 6.649 6.649 0 0 0 -11 0 1.038 1.038 0 0 1 -1.652 0 6.649 6.649 0 0 0 -11 0 1 1 0 0 1 -.826.437 1 1 0 0 1 -.826-.437 6.649 6.649 0 0 0 -11 0 1.038 1.038 0 0 1 -1.652 0 6.649 6.649 0 0 0 -11 0 1 1 0 0 1 -.826.437 1 1 0 0 1 -.826-.437 6.648 6.648 0 1 0 -10.3 8.332 1 1 0 0 1 .031 1.348 7.81 7.81 0 0 0 -1.879 5.143 7.653 7.653 0 0 0 2.95 6.139 1 1 0 0 1 0 1.6 7.877 7.877 0 0 0 0 12.286 1 1 0 0 1 0 1.6 7.876 7.876 0 0 0 0 12.285 1 1 0 0 1 0 1.6 7.877 7.877 0 0 0 0 12.286 1 1 0 0 1 0 1.6 7.876 7.876 0 0 0 0 12.285 1 1 0 0 1 0 1.6 7.654 7.654 0 0 0 -2.946 6.143 7.82 7.82 0 0 0 1.843 5.1 1 1 0 0 1 -.027 1.34 6.647 6.647 0 1 0 10.337 8.292 1.038 1.038 0 0 1 1.652 0 6.649 6.649 0 0 0 11 0 1 1 0 0 1 .826-.437 1 1 0 0 1 .826.437 6.649 6.649 0 0 0 11 0 1.038 1.038 0 0 1 1.652 0 6.649 6.649 0 0 0 11 0 1 1 0 0 1 .826-.437 1 1 0 0 1 .826.437 6.649 6.649 0 0 0 11 0 1 1 0 0 1 .815-.435z" fill="#2f3a5a"/><circle cx="78.693" cy="13.973" fill="#bd8d5a" r="1.626"/><circle cx="61.519" cy="13.973" fill="#bd8d5a" r="1.626"/><circle cx="44.345" cy="13.973" fill="#bd8d5a" r="1.626"/><circle cx="27.17" cy="13.973" fill="#bd8d5a" r="1.626"/><circle cx="78.693" cy="30.145" fill="#bd8d5a" r="1.626"/><circle cx="61.519" cy="30.145" fill="#bd8d5a" r="1.626"/><circle cx="44.345" cy="30.145" fill="#bd8d5a" r="1.626"/><circle cx="27.17" cy="30.145" fill="#bd8d5a" r="1.626"/><circle cx="78.693" cy="46.316" fill="#bd8d5a" r="1.626"/><circle cx="61.519" cy="46.316" fill="#bd8d5a" r="1.626"/><circle cx="44.345" cy="46.316" fill="#bd8d5a" r="1.626"/><circle cx="27.17" cy="46.316" fill="#bd8d5a" r="1.626"/><circle cx="78.693" cy="62.487" fill="#bd8d5a" r="1.626"/><circle cx="61.519" cy="62.487" fill="#bd8d5a" r="1.626"/><circle cx="44.345" cy="62.487" fill="#bd8d5a" r="1.626"/><circle cx="27.17" cy="62.487" fill="#bd8d5a" r="1.626"/><circle cx="78.693" cy="78.659" fill="#bd8d5a" r="1.626"/><circle cx="61.519" cy="78.659" fill="#bd8d5a" r="1.626"/><circle cx="44.345" cy="78.659" fill="#bd8d5a" r="1.626"/><circle cx="27.17" cy="78.659" fill="#bd8d5a" r="1.626"/><circle cx="78.693" cy="94.83" fill="#bd8d5a" r="1.626"/><circle cx="61.519" cy="94.83" fill="#bd8d5a" r="1.626"/><circle cx="44.345" cy="94.83" fill="#bd8d5a" r="1.626"/><circle cx="27.17" cy="94.83" fill="#bd8d5a" r="1.626"/></svg>