<svg id="Capa_1" enable-background="new 0 0 510.134 510.134" height="512" viewBox="0 0 510.134 510.134" width="512" xmlns="http://www.w3.org/2000/svg"><g><path d="m321.106 378.17-18.854 105.477c-1.964 10.987-11.52 18.987-22.681 18.987h-49.006c-11.161 0-20.718-8-22.682-18.987l-18.855-105.477-10.63-47.203h159.35z" fill="#fdd79b"/><path d="m215.644 330.967h-9.356-27.89l10.63 47.203 18.854 105.477c1.964 10.987 11.52 18.987 22.682 18.987h37.246c-11.161 0-20.718-8-22.681-18.987l-11.3-63.215c-2.074-11.605 6.848-22.263 18.636-22.263h65.066l3.575-20 16.642-47.203h-122.104z" fill="#fccd7f"/><path d="m345.58 314.363v39.333c0 13.517-10.958 24.475-24.475 24.475h-132.077c-13.517 0-24.475-10.958-24.475-24.475v-39.333-35.802h181.027z" fill="#fdd79b"/><path d="m215.099 353.696v-39.333-35.802h-50.545v35.802 39.333c0 13.517 10.958 24.475 24.475 24.475h50.545c-13.517-.001-24.475-10.958-24.475-24.475z" fill="#fccd7f"/><g><g fill="#fff9e2"><path d="m351.575 314.363h-193.016c-11.645 0-21.084-9.44-21.084-21.084 0-11.645 9.44-21.084 21.084-21.084h193.017c11.645 0 21.084 9.44 21.084 21.084 0 11.644-9.44 21.084-21.085 21.084z"/><path d="m337.045 272.194h-163.956c-17.823 0-32.272-14.448-32.272-32.272 0-17.823 14.448-32.272 32.272-32.272h163.955c17.823 0 32.272 14.448 32.272 32.272 0 17.823-14.448 32.272-32.271 32.272z"/><path d="m321.749 207.651h-133.364c-15.64 0-28.32-12.679-28.32-28.32 0-15.64 12.679-28.32 28.32-28.32h133.365c15.641 0 28.32 12.679 28.32 28.32-.001 15.641-12.68 28.32-28.321 28.32z"/><path d="m302.328 151.011h-93.522c-16.623 0-30.098-13.475-30.098-30.098 0-16.623 13.475-30.098 30.098-30.098h93.522c16.623 0 30.098 13.475 30.098 30.098 0 16.623-13.476 30.098-30.098 30.098z"/></g><path d="m189.709 293.278c0-11.645 9.44-21.084 21.084-21.084h-52.235c-11.645 0-21.084 9.44-21.084 21.084 0 11.645 9.44 21.084 21.084 21.084h52.235c-11.644.001-21.084-9.439-21.084-21.084z" fill="#fff5c6"/><path d="m193.053 239.922c0-17.823 14.448-32.272 32.272-32.272h-52.235c-17.823 0-32.272 14.448-32.272 32.272 0 17.823 14.448 32.271 32.272 32.271h52.235c-17.824.001-32.272-14.448-32.272-32.271z" fill="#fff5c6"/><path d="m212.3 179.331c0-15.641 12.679-28.32 28.32-28.32h-52.235c-15.641 0-28.32 12.679-28.32 28.32 0 15.641 12.679 28.32 28.32 28.32h52.235c-15.641 0-28.32-12.679-28.32-28.32z" fill="#fff5c6"/><path d="m230.943 120.914c0-16.623 13.475-30.098 30.098-30.098h-52.235c-16.622 0-30.098 13.475-30.098 30.098 0 16.623 13.475 30.098 30.098 30.098h52.235c-16.622-.001-30.098-13.476-30.098-30.098z" fill="#fff5c6"/><path d="m283.313 90.816c10.502 0 19.015-8.513 19.015-19.015 0-6.4-3.219-12.37-8.566-15.887l-14.769-9.713c-3.345-2.2-6.009-5.291-7.69-8.925l-12.958-28c-1.096-2.368-4.461-2.368-5.557 0l-12.957 28.001c-1.681 3.634-4.345 6.725-7.69 8.925l-14.768 9.713c-5.347 3.517-8.566 9.487-8.566 15.887 0 10.502 8.513 19.015 19.015 19.015h55.491z" fill="#fff9e2"/><path d="m240.62 71.801c0-6.4 3.219-12.37 8.566-15.887l14.769-9.713c3.239-2.13 5.831-5.102 7.519-8.586-.055-.114-.118-.224-.171-.339l-12.957-28c-1.096-2.368-4.461-2.368-5.557 0l-12.957 28c-1.682 3.634-4.345 6.725-7.69 8.925l-14.768 9.713c-5.347 3.517-8.566 9.487-8.566 15.887 0 10.501 8.513 19.015 19.015 19.015h31.814c-10.504 0-19.017-8.513-19.017-19.015z" fill="#fff5c6"/></g><path d="m380.16 293.278c0-10.877-6.108-20.353-15.073-25.182 7.24-7.207 11.729-17.176 11.729-28.174 0-17.629-11.533-32.607-27.447-37.808 5.12-6.196 8.2-14.137 8.2-22.783 0-16.435-11.13-30.31-26.245-34.509 5.371-6.502 8.601-14.835 8.601-23.908 0-19.136-14.373-34.968-32.889-37.293 1.782-3.562 2.791-7.574 2.791-11.82 0-8.952-4.465-17.234-11.945-22.153l-14.77-9.714c-2.178-1.432-3.908-3.439-5.003-5.807l-12.958-28.002c-1.748-3.778-5.421-6.125-9.584-6.125s-7.836 2.347-9.585 6.126l-12.958 28.001c-1.095 2.367-2.825 4.375-5.005 5.808l-14.768 9.713c-7.48 4.919-11.945 13.201-11.945 22.153 0 4.246 1.009 8.259 2.791 11.82-18.515 2.326-32.889 18.157-32.889 37.293 0 8.97 3.162 17.214 8.425 23.684-15.534 3.916-27.068 18.001-27.068 34.733 0 8.647 3.08 16.587 8.2 22.783-15.914 5.201-27.447 20.179-27.447 37.808 0 10.998 4.489 20.967 11.729 28.174-8.965 4.829-15.073 14.304-15.073 25.182 0 15.257 12.015 27.759 27.08 28.544v31.874c0 15.442 11.004 28.361 25.582 31.332l8.802 49.244c.649 3.632 3.81 6.182 7.374 6.182.438 0 .882-.038 1.329-.118 4.077-.729 6.792-4.625 6.063-8.702l-8.216-45.962h58.312c4.142 0 7.5-3.357 7.5-7.5s-3.358-7.5-7.5-7.5h-67.271c-9.36 0-16.975-7.615-16.975-16.975v-31.834h166.026v31.834c0 9.359-7.615 16.975-16.975 16.975h-32.843c-4.142 0-7.5 3.357-7.5 7.5s3.358 7.5 7.5 7.5h23.884l-17.278 96.657c-1.327 7.42-7.761 12.806-15.299 12.806h-49.006c-7.538 0-13.972-5.386-15.299-12.806l-3.349-18.733c-.729-4.078-4.625-6.798-8.703-6.063-4.078.729-6.792 4.625-6.063 8.702l3.349 18.733c2.606 14.583 15.25 25.167 30.064 25.167h49.006c14.814 0 27.458-10.584 30.064-25.167l17.864-99.939c14.578-2.97 25.582-15.89 25.582-31.332v-31.874c15.067-.786 27.082-13.288 27.082-28.545zm-158.666-231.097 14.767-9.712c4.518-2.97 8.106-7.135 10.377-12.043l8.929-19.296 8.929 19.296c2.271 4.908 5.859 9.073 10.376 12.042l14.768 9.713c3.248 2.136 5.188 5.732 5.188 9.62 0 6.35-5.166 11.515-11.515 11.515h-55.492c-6.349 0-11.515-5.165-11.515-11.515 0-3.888 1.94-7.485 5.188-9.62zm-12.688 36.134h93.521c12.46 0 22.598 10.138 22.598 22.599 0 12.46-10.138 22.598-22.598 22.598h-93.521c-12.46 0-22.598-10.138-22.598-22.598 0-12.461 10.138-22.599 22.598-22.599zm-35.717 116.835h34.651c4.142 0 7.5-3.357 7.5-7.5s-3.358-7.5-7.5-7.5h-19.356c-11.48 0-20.82-9.34-20.82-20.819s9.34-20.819 20.82-20.819h133.364c11.48 0 20.82 9.34 20.82 20.819s-9.34 20.819-20.82 20.819h-82.046c-4.142 0-7.5 3.357-7.5 7.5s3.358 7.5 7.5 7.5h97.342c13.659 0 24.771 11.113 24.771 24.772s-11.112 24.771-24.771 24.771h-163.955c-13.659 0-24.771-11.112-24.771-24.771s11.112-24.772 24.771-24.772zm178.486 91.712h-193.016c-7.491 0-13.584-6.094-13.584-13.584s6.094-13.584 13.584-13.584h193.017c7.491 0 13.584 6.094 13.584 13.584s-6.094 13.584-13.585 13.584z"/></g></svg>